<svg width="184" height="40" viewBox="0 0 184 40" fill="none" xmlns="http://www.w3.org/2000/svg">
<g filter="url(#filter0_d_2547_42)">
<rect x="8.00195" y="4" width="24" height="24" rx="12" fill="white"/>
<mask id="mask0_2547_42" style="mask-type:alpha" maskUnits="userSpaceOnUse" x="12" y="8" width="17" height="16">
<path d="M20.002 24C24.4202 24 28.002 20.4183 28.002 16C28.002 15.4116 27.9384 14.838 27.8179 14.2857H20.002V17.6H24.4074C23.7535 19.4 22.0279 20.6857 20.002 20.6857C17.4141 20.6857 15.3162 18.5878 15.3162 16C15.3162 13.4122 17.4141 11.3143 20.002 11.3143C21.321 11.3143 22.5128 11.8593 23.3644 12.7365L25.6965 10.3811C24.2459 8.91109 22.2303 8 20.002 8C15.5837 8 12.002 11.5817 12.002 16C12.002 20.4183 15.5837 24 20.002 24Z" fill="#C4C4C4"/>
</mask>
<g mask="url(#mask0_2547_42)">
<path d="M6.85938 16.0312L12.0022 11.6593L17.7165 16.1164L12.0022 20.345L6.85938 16.0312Z" fill="#FEBD01"/>
<path d="M12.002 11.6602L18.4591 5.20301L25.4305 7.7173L28.4591 13.0887L19.8305 13.4316L17.7162 16.1173L12.002 11.6602Z" fill="#FF4131"/>
<path d="M19.6602 13.9434L28.9173 13.7148L28.803 17.8291L26.5173 22.7434L21.8316 19.0863L19.6602 18.0577V13.9434Z" fill="#0286F7"/>
<path d="M12.002 20.3458L17.7162 16.1172L18.3448 18.9743L21.8305 19.0886L26.5162 22.7458L21.7734 24.8029L15.8877 24.46L12.002 20.3458Z" fill="#01A94D"/>
</g>
</g>
<g filter="url(#filter1_d_2547_42)">
<path d="M80.0021 15.9992C80.0021 9.37225 74.6299 4 68.002 4C61.3744 4 56.002 9.37225 56.002 15.9992C56.002 22.6262 61.3744 28 68.002 28C74.63 28 80.0021 22.6262 80.0021 15.9992Z" fill="#395196"/>
<path d="M69.0595 13.158V12.0213C69.0595 11.4677 69.429 11.3383 69.6876 11.3383C69.9472 11.3383 71.283 11.3383 71.283 11.3383V8.90422L69.0866 8.89453C66.6486 8.89453 66.095 10.711 66.095 11.8739V13.158H64.6855V16.0014H66.1072C66.1072 19.2233 66.1072 23.1082 66.1072 23.1082H68.9497C68.9497 23.1082 68.9497 19.1837 68.9497 16.0014H71.0595L71.319 13.158H69.0595Z" fill="white"/>
</g>
<g filter="url(#filter2_d_2547_42)">
<path d="M116.001 4C109.375 4 104.002 9.37276 104.002 16.0013C104.002 22.6276 109.375 28 116.001 28C122.627 28 128 22.6276 128 16.0013C128 9.37276 122.627 4 116.001 4Z" fill="url(#paint0_linear_2547_42)"/>
<path d="M116.002 20.2841C118.365 20.2841 120.287 18.3628 120.287 16.0008C120.287 13.6375 118.365 11.7148 116.002 11.7148C113.639 11.7148 111.717 13.6375 111.717 16.0008C111.717 18.3626 113.639 20.2841 116.002 20.2841ZM112.756 16.0008C112.756 14.2098 114.212 12.7527 116.002 12.7527C117.791 12.7527 119.248 14.2098 119.248 16.0008C119.248 17.7905 117.791 19.2466 116.002 19.2466C114.212 19.2466 112.756 17.7905 112.756 16.0008Z" fill="white"/>
<path d="M120.275 23.1178H111.728C110.123 23.1178 108.818 21.8127 108.818 20.2086V11.792C108.818 10.1879 110.123 8.88281 111.728 8.88281H120.275C121.879 8.88281 123.184 10.1879 123.184 11.792V20.2086C123.184 21.8127 121.879 23.1178 120.275 23.1178ZM111.728 9.94421C110.709 9.94421 109.88 10.7731 109.88 11.792V20.2086C109.88 21.2273 110.709 22.0564 111.728 22.0564H120.275C121.293 22.0564 122.122 21.2274 122.122 20.2086V11.792C122.122 10.7731 121.293 9.94421 120.275 9.94421H111.728Z" fill="white"/>
<path d="M120.344 11.2266C119.97 11.2266 119.668 11.5316 119.668 11.9038C119.668 12.2783 119.97 12.5793 120.344 12.5793C120.716 12.5793 121.021 12.2783 121.021 11.9038C121.021 11.5316 120.716 11.2266 120.344 11.2266Z" fill="white"/>
</g>
<g filter="url(#filter3_d_2547_42)">
<path d="M176 16C176 9.37234 170.627 4 164.001 4C157.372 4 152 9.37218 152 16C152 22.6268 157.372 28 164.001 28C170.627 28 176 22.6268 176 16Z" fill="#3D83D9"/>
<path d="M161.065 13.0703H158.287V21.0091H161.065V13.0703Z" fill="white"/>
<path d="M159.676 9.10156C158.806 9.10156 158.125 9.90117 158.321 10.8019C158.435 11.3251 158.862 11.7457 159.387 11.8511C160.282 12.031 161.065 11.3532 161.065 10.4906C161.065 9.7247 160.444 9.10156 159.676 9.10156Z" fill="white"/>
<path d="M170.195 15.5091C170.008 14.0128 169.259 13.0703 167.237 13.0703C165.801 13.0703 165.23 13.2942 164.901 13.9209V13.0703H162.652V21.0091H164.967V16.8535C164.967 15.8161 165.163 15.0325 166.446 15.0325C167.71 15.0325 167.812 15.9969 167.812 16.9208V21.0093H170.195C170.195 21.0093 170.239 15.8588 170.195 15.5091Z" fill="white"/>
</g>
<defs>
<filter id="filter0_d_2547_42" x="0.00195312" y="0" width="40" height="40" filterUnits="userSpaceOnUse" color-interpolation-filters="sRGB">
<feFlood flood-opacity="0" result="BackgroundImageFix"/>
<feColorMatrix in="SourceAlpha" type="matrix" values="0 0 0 0 0 0 0 0 0 0 0 0 0 0 0 0 0 0 127 0" result="hardAlpha"/>
<feOffset dy="4"/>
<feGaussianBlur stdDeviation="4"/>
<feColorMatrix type="matrix" values="0 0 0 0 0 0 0 0 0 0.0627451 0 0 0 0 0.160784 0 0 0 0.1 0"/>
<feBlend mode="normal" in2="BackgroundImageFix" result="effect1_dropShadow_2547_42"/>
<feBlend mode="normal" in="SourceGraphic" in2="effect1_dropShadow_2547_42" result="shape"/>
</filter>
<filter id="filter1_d_2547_42" x="48.002" y="0" width="40" height="40" filterUnits="userSpaceOnUse" color-interpolation-filters="sRGB">
<feFlood flood-opacity="0" result="BackgroundImageFix"/>
<feColorMatrix in="SourceAlpha" type="matrix" values="0 0 0 0 0 0 0 0 0 0 0 0 0 0 0 0 0 0 127 0" result="hardAlpha"/>
<feOffset dy="4"/>
<feGaussianBlur stdDeviation="4"/>
<feColorMatrix type="matrix" values="0 0 0 0 0 0 0 0 0 0.0627451 0 0 0 0 0.160784 0 0 0 0.1 0"/>
<feBlend mode="normal" in2="BackgroundImageFix" result="effect1_dropShadow_2547_42"/>
<feBlend mode="normal" in="SourceGraphic" in2="effect1_dropShadow_2547_42" result="shape"/>
</filter>
<filter id="filter2_d_2547_42" x="96.002" y="0" width="39.998" height="40" filterUnits="userSpaceOnUse" color-interpolation-filters="sRGB">
<feFlood flood-opacity="0" result="BackgroundImageFix"/>
<feColorMatrix in="SourceAlpha" type="matrix" values="0 0 0 0 0 0 0 0 0 0 0 0 0 0 0 0 0 0 127 0" result="hardAlpha"/>
<feOffset dy="4"/>
<feGaussianBlur stdDeviation="4"/>
<feColorMatrix type="matrix" values="0 0 0 0 0 0 0 0 0 0.0627451 0 0 0 0 0.160784 0 0 0 0.1 0"/>
<feBlend mode="normal" in2="BackgroundImageFix" result="effect1_dropShadow_2547_42"/>
<feBlend mode="normal" in="SourceGraphic" in2="effect1_dropShadow_2547_42" result="shape"/>
</filter>
<filter id="filter3_d_2547_42" x="144" y="0" width="40" height="40" filterUnits="userSpaceOnUse" color-interpolation-filters="sRGB">
<feFlood flood-opacity="0" result="BackgroundImageFix"/>
<feColorMatrix in="SourceAlpha" type="matrix" values="0 0 0 0 0 0 0 0 0 0 0 0 0 0 0 0 0 0 127 0" result="hardAlpha"/>
<feOffset dy="4"/>
<feGaussianBlur stdDeviation="4"/>
<feColorMatrix type="matrix" values="0 0 0 0 0 0 0 0 0 0.0627451 0 0 0 0 0.160784 0 0 0 0.1 0"/>
<feBlend mode="normal" in2="BackgroundImageFix" result="effect1_dropShadow_2547_42"/>
<feBlend mode="normal" in="SourceGraphic" in2="effect1_dropShadow_2547_42" result="shape"/>
</filter>
<linearGradient id="paint0_linear_2547_42" x1="123.873" y1="25.0565" x2="108.128" y2="6.94412" gradientUnits="userSpaceOnUse">
<stop stop-color="#5D3FD2"/>
<stop offset="0.4244" stop-color="#B829A9"/>
<stop offset="0.5009" stop-color="#BE289D"/>
<stop offset="0.6383" stop-color="#D0257E"/>
<stop offset="0.7849" stop-color="#E62256"/>
<stop offset="0.8147" stop-color="#E83156"/>
<stop offset="0.8718" stop-color="#EE5755"/>
<stop offset="0.9495" stop-color="#F89554"/>
<stop offset="1" stop-color="#FFC153"/>
</linearGradient>
</defs>
</svg>
